<?xml version="1.0" encoding="utf-8"?>
<!-- Generator: Adobe Illustrator 21.0.0, SVG Export Plug-In . SVG Version: 6.00 Build 0)  -->
<svg version="1.1" id="图层_1" xmlns="http://www.w3.org/2000/svg" xmlns:xlink="http://www.w3.org/1999/xlink" x="0px" y="0px"
	 viewBox="0 0 44 40" style="enable-background:new 0 0 44 40;" xml:space="preserve">
<style type="text/css">
	.st0{fill:#22BB7A;}
</style>
<title>logo</title>
<desc>Created with Sketch.</desc>
<g id="组件">
	<g id="导航" transform="translate(-1.000000, 3.000000)">
		<g id="分组-5" transform="translate(-6.000000, -12.000000)">
			<g id="Group">
				<path class="st0" d="M37,47.9H21c-1.8,0-3.4-1-4.3-2.5l-8-13.9c-0.9-1.5-0.9-3.5,0-5l8-13.9c0.9-1.5,2.5-2.5,4.3-2.5H37
					c1.8,0,3.4,1,4.3,2.5l8,13.9c0.9,1.5,0.9,3.5,0,5l-8,13.9C40.5,47,38.8,47.9,37,47.9z M21,12.1c-1.1,0-2.1,0.6-2.6,1.5l-8,13.9
					c-0.5,0.9-0.5,2.1,0,3l8,13.9c0.5,0.9,1.5,1.5,2.6,1.5H37c1.1,0,2.1-0.6,2.6-1.5l8-13.9c0.5-0.9,0.5-2.1,0-3l-8-13.9
					c-0.5-0.9-1.5-1.5-2.6-1.5H21z"/>
				<path id="EMQ" class="st0" d="M20.5,29.8h-3.6l-0.4,2.6h4.4l-0.3,1.8h-6.7l1.5-10.3h6.8l-0.3,1.8h-4.4l-0.3,2.2h3.6L20.5,29.8z
					 M27.8,31.1L27.8,31.1l3.5-7.2h3.2l-1.5,10.3h-2.4l1-6.6l0,0l-3.3,6.6h-1.6l-1.3-6.5h0l-1,6.5h-2.4l1.5-10.3h3.1L27.8,31.1z
					 M43.7,30c-0.1,0.5-0.2,1-0.4,1.5s-0.4,0.9-0.8,1.2l1.3,1.5l-1.7,1.2l-1.2-1.5c-0.3,0.1-0.7,0.3-1,0.3c-0.4,0.1-0.7,0.1-1.1,0.1
					c-1.3,0-2.2-0.4-3-1.2c-0.7-0.8-1-1.9-0.8-3.1l0.3-1.9c0.2-1.3,0.8-2.4,1.7-3.2c0.9-0.8,2-1.2,3.4-1.2c1.2,0,2.2,0.4,2.9,1.2
					s1,1.9,0.8,3.1L43.7,30z M41.6,28.1c0.1-0.8,0-1.4-0.2-1.8s-0.7-0.7-1.4-0.7c-0.6,0-1.1,0.2-1.6,0.7s-0.7,1.1-0.8,1.8L37.3,30
					c-0.1,0.8,0,1.4,0.2,1.8c0.3,0.5,0.7,0.7,1.4,0.7c0.6,0,1.1-0.2,1.5-0.7s0.7-1.1,0.8-1.8L41.6,28.1z"/>
			</g>
		</g>
	</g>
</g>
</svg>
